<svg width="136.309" height="12.111" viewBox="0 0 136.309 12.111" xmlns="http://www.w3.org/2000/svg"><g id="svgGroup" stroke-linecap="round" fill-rule="evenodd" font-size="9pt" stroke="#ab475c" stroke-width="0.25mm" fill="#ab475c" style="stroke:#ab475c;stroke-width:0.25mm;fill:#ab475c"><path d="M 0 11.915 L 3.613 11.915 L 3.613 11.407 L 2.051 11.407 L 5.391 6.798 L 8.496 11.407 L 7.07 11.407 L 7.07 11.915 L 11.621 11.915 Q 11.621 11.485 11.309 11.427 Q 11.211 11.407 11.113 11.407 L 10.488 11.407 L 6.465 5.45 L 9.492 1.251 A 1.764 1.764 0 0 1 9.732 0.981 Q 10.009 0.731 10.332 0.704 L 10.547 0.704 Q 10.977 0.704 11.035 0.392 Q 11.055 0.294 11.055 0.196 L 7.656 0.196 L 7.656 0.704 L 9.219 0.704 L 6.152 4.981 L 3.262 0.704 L 4.668 0.704 L 4.668 0.196 L 0.098 0.196 L 0.098 0.704 L 1.309 0.704 L 5.059 6.29 L 1.719 10.86 Q 1.309 11.407 0.508 11.407 Q 0.078 11.407 0.02 11.72 Q 0 11.817 0 11.915 Z" id="0" vector-effect="non-scaling-stroke"/><path d="M 12.402 11.915 L 20.957 11.915 L 21.055 8.009 L 20.664 8.009 L 20.332 9.317 Q 19.863 11.114 18.77 11.368 A 2.867 2.867 0 0 1 18.456 11.403 A 2.469 2.469 0 0 1 18.32 11.407 L 15.645 11.407 L 15.645 0.704 L 17.285 0.704 L 17.285 0.196 L 12.402 0.196 L 12.402 0.704 L 13.965 0.704 L 13.965 11.407 L 12.402 11.407 L 12.402 11.915 Z" id="1" vector-effect="non-scaling-stroke"/><path d="M 32.559 12.013 L 32.559 8.321 L 32.09 8.321 A 6.026 6.026 0 0 1 31.42 9.807 Q 30.374 11.433 28.392 11.554 A 5.296 5.296 0 0 1 28.105 11.563 Q 25.566 11.563 24.648 9.005 Q 24.23 7.839 24.201 6.283 A 12.514 12.514 0 0 1 24.199 6.056 A 10.328 10.328 0 0 1 24.333 4.328 Q 24.488 3.418 24.822 2.717 A 3.87 3.87 0 0 1 26.211 1.095 Q 27.09 0.548 28.164 0.548 A 4.003 4.003 0 0 1 29.775 0.859 Q 30.728 1.273 31.358 2.239 A 5.22 5.22 0 0 1 31.699 2.853 Q 31.895 3.263 32.031 3.692 L 32.5 3.692 L 32.441 0.099 A 1.026 1.026 0 0 0 32.258 0.114 Q 32.164 0.131 32.093 0.168 A 0.361 0.361 0 0 0 31.914 0.372 A 1.385 1.385 0 0 0 31.887 0.517 Q 31.855 0.747 31.855 1.134 A 2.364 2.364 0 0 0 31.385 0.777 Q 30.906 0.494 30.164 0.281 A 9.117 9.117 0 0 0 29.922 0.216 Q 29.023 0.001 28.086 0.001 A 6.638 6.638 0 0 0 26.055 0.296 A 5.208 5.208 0 0 0 23.359 2.286 A 6.303 6.303 0 0 0 22.23 5.787 A 7.71 7.71 0 0 0 22.227 6.017 A 6.831 6.831 0 0 0 22.574 8.235 A 5.882 5.882 0 0 0 23.809 10.313 A 5.586 5.586 0 0 0 27.606 12.089 A 7.614 7.614 0 0 0 28.184 12.11 Q 30.156 12.091 31.953 11.017 A 4.465 4.465 0 0 0 31.961 11.3 Q 31.989 11.729 32.108 11.885 A 0.232 0.232 0 0 0 32.188 11.954 Q 32.28 11.994 32.418 12.007 A 1.527 1.527 0 0 0 32.559 12.013 Z" id="2" vector-effect="non-scaling-stroke"/><path d="M 40.371 0.001 Q 38.027 0.001 36.348 1.544 Q 34.512 3.243 34.512 5.978 A 7.366 7.366 0 0 0 34.792 8.065 A 5.454 5.454 0 0 0 36.68 10.86 Q 38.262 12.11 40.313 12.11 Q 42.617 12.11 44.277 10.548 A 5.786 5.786 0 0 0 46.121 6.49 A 7.828 7.828 0 0 0 46.133 6.056 A 7.357 7.357 0 0 0 45.867 4.022 A 5.325 5.325 0 0 0 43.887 1.153 Q 42.363 0.001 40.371 0.001 Z M 38.834 11.282 A 3.966 3.966 0 0 0 40.371 11.563 A 4.068 4.068 0 0 0 40.541 11.56 A 3.492 3.492 0 0 0 41.816 11.271 A 3.245 3.245 0 0 0 42.421 10.925 Q 43.71 9.991 44.054 7.769 A 11.747 11.747 0 0 0 44.18 5.978 Q 44.166 2.135 42.206 1.011 A 3.828 3.828 0 0 0 40.312 0.548 A 4.955 4.955 0 0 0 40.108 0.552 A 4.316 4.316 0 0 0 39.277 0.665 A 3.281 3.281 0 0 0 37.058 2.61 Q 36.746 3.3 36.598 4.216 A 11.605 11.605 0 0 0 36.465 6.056 A 14.136 14.136 0 0 0 36.466 6.236 Q 36.474 6.86 36.538 7.418 A 8.399 8.399 0 0 0 36.738 8.536 A 5.579 5.579 0 0 0 37.196 9.734 Q 37.788 10.847 38.834 11.282 Z" id="3" vector-effect="non-scaling-stroke"/><path d="M 56.074 0.196 L 56.074 0.704 L 57.734 0.704 L 57.734 9.454 L 50.313 0.196 L 47.598 0.196 L 47.598 0.704 L 49.16 0.704 L 49.16 11.407 L 47.598 11.407 L 47.598 11.915 L 51.602 11.915 Q 51.602 11.485 51.289 11.427 Q 51.191 11.407 51.094 11.407 L 49.941 11.407 L 49.941 2.364 L 57.617 12.013 L 58.516 11.817 L 58.516 0.704 L 60.078 0.704 L 60.078 0.196 L 56.074 0.196 Z" id="4" vector-effect="non-scaling-stroke"/><path d="M 68.711 3.517 L 69.297 3.517 L 69.297 0.099 Q 68.828 0.099 68.75 0.392 A 0.837 0.837 0 0 0 68.728 0.494 Q 68.711 0.607 68.711 0.763 A 6.21 6.21 0 0 0 66.173 0.023 A 7.546 7.546 0 0 0 65.586 0.001 A 6.097 6.097 0 0 0 64.254 0.138 Q 63.076 0.402 62.305 1.173 Q 61.523 1.993 61.523 3.087 A 2.66 2.66 0 0 0 62.391 5.057 Q 62.786 5.439 63.359 5.763 A 4.901 4.901 0 0 0 63.539 5.851 Q 63.956 6.049 65.067 6.533 A 241.004 241.004 0 0 0 65.586 6.759 A 10.793 10.793 0 0 1 66.384 7.151 Q 67.461 7.74 67.813 8.341 Q 68.066 8.79 68.066 9.317 A 2.172 2.172 0 0 1 67.881 10.234 Q 67.57 10.911 66.738 11.29 Q 66.113 11.563 65.352 11.563 A 3.569 3.569 0 0 1 63.89 11.263 Q 62.415 10.582 62.085 8.36 A 8.112 8.112 0 0 1 62.031 7.911 L 61.445 7.911 L 61.445 11.954 A 1.216 1.216 0 0 0 61.631 11.941 Q 61.931 11.895 61.992 11.681 A 0.866 0.866 0 0 0 62.009 11.587 Q 62.031 11.422 62.031 11.114 A 6.018 6.018 0 0 0 65.3 12.109 A 7.265 7.265 0 0 0 65.449 12.11 A 6.679 6.679 0 0 0 66.844 11.974 Q 67.713 11.788 68.371 11.35 A 3.758 3.758 0 0 0 68.926 10.899 Q 69.766 10.04 69.766 8.849 A 2.834 2.834 0 0 0 68.754 6.664 A 4.836 4.836 0 0 0 67.891 6.056 Q 67.573 5.888 66.123 5.248 A 245.786 245.786 0 0 0 65.605 5.021 Q 64.248 4.441 63.677 3.838 A 1.817 1.817 0 0 1 63.418 3.497 Q 63.184 3.067 63.184 2.579 A 2.062 2.062 0 0 1 63.327 1.79 Q 63.541 1.267 64.078 0.947 A 2.648 2.648 0 0 1 64.453 0.763 A 3.112 3.112 0 0 1 65.29 0.566 A 3.814 3.814 0 0 1 65.664 0.548 A 3.847 3.847 0 0 1 66.7 0.679 A 2.727 2.727 0 0 1 68.164 1.661 A 2.757 2.757 0 0 1 68.681 2.967 Q 68.716 3.23 68.711 3.517 Z" id="5" vector-effect="non-scaling-stroke"/><path d="M 70.938 0.196 L 70.938 0.704 L 72.5 0.704 L 72.5 7.521 Q 72.531 11.168 75.411 11.917 A 6.638 6.638 0 0 0 77.051 12.11 Q 80.406 12.11 81.175 9.431 A 4.939 4.939 0 0 0 81.211 9.298 Q 81.422 8.452 81.426 7.379 A 11.092 11.092 0 0 0 81.426 7.345 L 81.426 0.704 L 82.988 0.704 L 82.988 0.196 L 79.18 0.196 L 79.18 0.704 L 80.742 0.704 L 80.742 7.462 A 7.593 7.593 0 0 1 80.617 8.905 Q 80.159 11.261 78.025 11.533 A 4.151 4.151 0 0 1 77.93 11.544 Q 77.695 11.563 77.461 11.563 A 4.258 4.258 0 0 1 76.327 11.424 Q 74.913 11.033 74.453 9.552 A 5.511 5.511 0 0 1 74.271 8.741 Q 74.208 8.326 74.189 7.849 A 10.838 10.838 0 0 1 74.18 7.403 L 74.18 0.704 L 75.723 0.704 L 75.723 0.196 L 70.938 0.196 Z" id="6" vector-effect="non-scaling-stroke"/><path d="M 83.867 11.915 L 92.422 11.915 L 92.52 8.009 L 92.129 8.009 L 91.797 9.317 Q 91.328 11.114 90.234 11.368 A 2.867 2.867 0 0 1 89.921 11.403 A 2.469 2.469 0 0 1 89.785 11.407 L 87.109 11.407 L 87.109 0.704 L 88.75 0.704 L 88.75 0.196 L 83.867 0.196 L 83.867 0.704 L 85.43 0.704 L 85.43 11.407 L 83.867 11.407 L 83.867 11.915 Z" id="7" vector-effect="non-scaling-stroke"/><path d="M 95.586 11.915 L 100.957 11.915 Q 100.957 11.485 100.645 11.427 Q 100.547 11.407 100.449 11.407 L 99.121 11.407 L 99.121 0.704 L 100.254 0.704 A 1.932 1.932 0 0 1 101.392 1.038 Q 102.056 1.504 102.363 2.618 A 0.503 0.503 0 0 0 102.365 2.659 Q 102.369 2.707 102.383 2.735 L 102.695 4.044 L 103.242 4.044 L 103.145 0.196 L 93.496 0.196 L 93.398 4.044 L 93.945 4.044 L 94.258 2.735 A 4.462 4.462 0 0 1 94.625 1.891 Q 95.259 0.792 96.387 0.704 L 97.441 0.704 L 97.441 11.407 L 95.586 11.407 L 95.586 11.915 Z" id="8" vector-effect="non-scaling-stroke"/><path d="M 104.707 11.915 L 109.492 11.915 Q 109.492 11.485 109.18 11.427 Q 109.082 11.407 108.984 11.407 L 107.949 11.407 L 107.949 0.704 L 109.492 0.704 L 109.492 0.196 L 104.707 0.196 L 104.707 0.704 L 106.27 0.704 L 106.27 11.407 L 104.707 11.407 L 104.707 11.915 Z" id="9" vector-effect="non-scaling-stroke"/><path d="M 119.141 0.196 L 119.141 0.704 L 120.801 0.704 L 120.801 9.454 L 113.379 0.196 L 110.664 0.196 L 110.664 0.704 L 112.227 0.704 L 112.227 11.407 L 110.664 11.407 L 110.664 11.915 L 114.668 11.915 Q 114.668 11.485 114.355 11.427 Q 114.258 11.407 114.16 11.407 L 113.008 11.407 L 113.008 2.364 L 120.684 12.013 L 121.582 11.817 L 121.582 0.704 L 123.145 0.704 L 123.145 0.196 L 119.141 0.196 Z" id="10" vector-effect="non-scaling-stroke"/><path d="M 136.309 6.642 L 131.445 6.642 L 131.445 7.149 L 133.203 7.149 L 133.203 10.196 A 3.599 3.599 0 0 1 130.838 11.477 A 4.792 4.792 0 0 1 130.586 11.505 Q 130.43 11.524 130.273 11.524 Q 126.964 11.491 126.458 7.55 A 12.117 12.117 0 0 1 126.367 6.056 A 11.605 11.605 0 0 1 126.501 4.216 Q 126.648 3.3 126.96 2.61 A 3.281 3.281 0 0 1 129.18 0.665 A 4.316 4.316 0 0 1 130.011 0.552 A 4.955 4.955 0 0 1 130.215 0.548 Q 132.227 0.548 133.125 1.661 A 4.023 4.023 0 0 1 133.48 2.221 Q 133.857 2.929 134.18 4.044 L 134.688 4.044 L 134.59 0.255 L 132.891 0.606 A 5.85 5.85 0 0 0 130.273 0.001 Q 127.93 0.001 126.25 1.544 Q 124.414 3.243 124.414 5.978 Q 124.414 9.103 126.641 10.86 Q 128.262 12.11 130.273 12.11 Q 131.738 12.11 132.93 11.466 A 1.959 1.959 0 0 0 133.039 11.407 Q 133.091 11.377 133.135 11.346 A 0.971 0.971 0 0 0 133.184 11.31 L 134.844 11.915 L 134.844 7.149 L 136.309 7.149 L 136.309 6.642 Z" id="11" vector-effect="non-scaling-stroke"/></g></svg>