<svg width="634.501" height="98.601" viewBox="0 0 634.501 98.601" xmlns="http://www.w3.org/2000/svg"><g id="svgGroup" stroke-linecap="round" fill-rule="evenodd" font-size="9pt" stroke="#000" stroke-width="0.5mm" fill="none" style="stroke:#000;stroke-width:0.5mm;fill:none"><path d="M 65.701 67.801 L 65.701 71.201 A 4.218 4.218 0 0 1 65.479 72.628 Q 64.809 74.497 62.106 74.595 A 8.425 8.425 0 0 1 61.801 74.601 L 42.701 74.601 Q 38.801 74.601 38.801 71.201 L 38.801 67.801 A 4.218 4.218 0 0 1 39.022 66.373 Q 39.693 64.504 42.395 64.406 A 8.425 8.425 0 0 1 42.701 64.401 L 45.301 64.401 L 32.001 46.301 L 18.501 64.401 L 20.801 64.401 Q 24.701 64.401 24.701 67.801 L 24.701 71.201 A 4.218 4.218 0 0 1 24.479 72.628 Q 23.809 74.497 21.106 74.595 A 8.425 8.425 0 0 1 20.801 74.601 L 3.901 74.601 Q 0.001 74.601 0.001 71.201 L 0.001 67.801 A 4.218 4.218 0 0 1 0.222 66.373 Q 0.893 64.504 3.595 64.406 A 8.425 8.425 0 0 1 3.901 64.401 L 6.001 64.401 L 24.801 39.701 L 6.301 14.801 L 4.401 14.801 Q 0.501 14.801 0.501 11.401 L 0.501 8.001 A 4.218 4.218 0 0 1 0.722 6.573 Q 1.393 4.704 4.095 4.606 A 8.425 8.425 0 0 1 4.401 4.601 L 23.501 4.601 Q 27.401 4.601 27.401 8.001 L 27.401 11.401 A 4.218 4.218 0 0 1 27.179 12.828 Q 26.509 14.697 23.806 14.795 A 8.425 8.425 0 0 1 23.501 14.801 L 20.701 14.801 L 33.501 32.101 L 46.301 14.801 L 44.101 14.801 Q 40.201 14.801 40.201 11.401 L 40.201 8.001 A 4.218 4.218 0 0 1 40.422 6.573 Q 41.093 4.704 43.795 4.606 A 8.425 8.425 0 0 1 44.101 4.601 L 61.101 4.601 Q 65.001 4.601 65.001 8.001 L 65.001 11.401 A 4.218 4.218 0 0 1 64.779 12.828 Q 64.109 14.697 61.406 14.795 A 8.425 8.425 0 0 1 61.101 14.801 L 58.901 14.801 L 40.601 38.801 L 59.701 64.401 L 61.801 64.401 Q 65.701 64.401 65.701 67.801 Z" id="0" vector-effect="non-scaling-stroke"/><path d="M 73.601 71.201 L 73.601 67.801 A 4.218 4.218 0 0 1 73.822 66.373 Q 74.493 64.504 77.195 64.406 A 8.425 8.425 0 0 1 77.501 64.401 L 79.701 64.401 L 79.701 10.801 L 77.501 10.801 Q 73.601 10.801 73.601 7.401 L 73.601 4.001 A 4.218 4.218 0 0 1 73.822 2.573 Q 74.493 0.704 77.195 0.606 A 8.425 8.425 0 0 1 77.501 0.601 L 87.301 0.601 A 4.271 4.271 0 0 1 89.198 1.018 A 4.28 4.28 0 0 1 90.351 1.851 A 4.278 4.278 0 0 1 91.307 3.259 A 4.036 4.036 0 0 1 91.601 4.801 L 91.601 64.401 L 93.701 64.401 Q 97.601 64.401 97.601 67.801 L 97.601 71.201 A 4.218 4.218 0 0 1 97.379 72.628 Q 96.709 74.497 94.006 74.595 A 8.425 8.425 0 0 1 93.701 74.601 L 77.501 74.601 Q 73.601 74.601 73.601 71.201 Z" id="1" vector-effect="non-scaling-stroke"/><path d="M 158.713 53.784 A 6.227 6.227 0 0 0 156.501 53.401 Q 154.701 53.401 153.701 54.151 Q 152.966 54.701 152.178 56.034 A 17.281 17.281 0 0 0 151.601 57.101 A 18.746 18.746 0 0 1 149.782 59.948 A 13.905 13.905 0 0 1 146.001 63.351 A 13.792 13.792 0 0 1 141.733 65.008 A 18.757 18.757 0 0 1 137.801 65.401 A 22.489 22.489 0 0 1 134.972 65.229 A 14.958 14.958 0 0 1 124.001 58.701 Q 120.766 53.99 119.806 46.164 A 58.991 58.991 0 0 1 119.401 39.001 A 71.097 71.097 0 0 1 119.408 37.991 Q 119.577 26.049 123.801 20.051 Q 128.201 13.801 137.401 13.801 Q 144.901 13.801 148.501 17.901 A 6.562 6.562 0 0 0 147.218 20.285 A 8.101 8.101 0 0 0 146.901 22.601 A 8.489 8.489 0 0 0 146.909 22.971 A 6.304 6.304 0 0 0 148.951 27.501 Q 151.001 29.401 154.301 29.401 Q 157.701 29.401 159.801 27.151 A 7.561 7.561 0 0 0 161.629 23.632 A 11.158 11.158 0 0 0 161.901 21.101 A 13.4 13.4 0 0 0 161.258 16.95 A 14.42 14.42 0 0 0 158.601 12.201 A 19.928 19.928 0 0 0 154.586 8.527 A 25.41 25.41 0 0 0 149.701 5.901 Q 144.101 3.601 137.301 3.601 A 37.906 37.906 0 0 0 131.652 4.006 A 25.954 25.954 0 0 0 115.051 13.051 Q 107.101 22.501 107.101 39.301 A 56.987 56.987 0 0 0 107.815 48.542 A 41.367 41.367 0 0 0 110.701 58.501 A 34.155 34.155 0 0 0 111.968 61.09 A 27.434 27.434 0 0 0 121.101 71.151 A 26.3 26.3 0 0 0 128.563 74.505 A 32.019 32.019 0 0 0 137.101 75.601 Q 140.851 75.601 144.073 74.941 A 24.236 24.236 0 0 0 150.701 72.601 A 22.932 22.932 0 0 0 155.629 69.037 A 27.703 27.703 0 0 0 160.101 63.501 Q 160.901 62.101 161.401 60.551 A 13.531 13.531 0 0 0 161.637 59.737 Q 161.764 59.235 161.83 58.789 A 6.097 6.097 0 0 0 161.901 57.901 A 3.821 3.821 0 0 0 161.307 55.808 A 4.644 4.644 0 0 0 160.301 54.701 A 5.681 5.681 0 0 0 158.713 53.784 Z" id="2" vector-effect="non-scaling-stroke"/><path d="M 188.899 74.716 A 30.08 30.08 0 0 0 196.401 75.601 A 30.925 30.925 0 0 0 200.903 75.283 A 23.872 23.872 0 0 0 209.501 72.351 Q 215.101 69.101 218.151 63.051 A 27.422 27.422 0 0 0 220.485 56.293 A 35.541 35.541 0 0 0 221.201 49.001 A 42.532 42.532 0 0 0 221.197 48.444 Q 221.143 44.295 220.275 40.776 A 22.643 22.643 0 0 0 214.751 30.401 A 20.971 20.971 0 0 0 204.496 24.479 A 30.212 30.212 0 0 0 197.001 23.601 A 31.249 31.249 0 0 0 192.012 23.985 A 23.75 23.75 0 0 0 183.801 26.851 Q 178.201 30.101 175.151 36.101 A 27.098 27.098 0 0 0 172.771 43.04 A 35.552 35.552 0 0 0 172.101 50.101 A 42.547 42.547 0 0 0 172.102 50.371 Q 172.128 54.548 172.977 58.099 A 22.87 22.87 0 0 0 178.601 68.751 A 21.131 21.131 0 0 0 188.899 74.716 Z M 196.501 65.601 A 13.958 13.958 0 0 0 200.438 65.075 A 10.303 10.303 0 0 0 205.851 61.351 A 14.003 14.003 0 0 0 208.014 57.097 Q 208.642 55.148 208.907 52.78 A 33.144 33.144 0 0 0 209.101 49.101 A 29.867 29.867 0 0 0 208.813 44.808 Q 208.495 42.623 207.825 40.852 A 12.42 12.42 0 0 0 206.001 37.551 A 10.028 10.028 0 0 0 199.74 33.851 A 15.295 15.295 0 0 0 196.901 33.601 A 13.404 13.404 0 0 0 192.773 34.205 A 10.639 10.639 0 0 0 187.551 37.901 A 14.384 14.384 0 0 0 185.203 42.516 Q 184.576 44.528 184.342 46.948 A 31.638 31.638 0 0 0 184.201 50.001 Q 184.201 55.043 185.647 58.526 A 12.707 12.707 0 0 0 187.401 61.551 A 10.407 10.407 0 0 0 194.468 65.47 A 15.261 15.261 0 0 0 196.501 65.601 Z" id="3" vector-effect="non-scaling-stroke"/><path d="M 286.901 67.801 L 286.901 71.201 A 4.218 4.218 0 0 1 286.679 72.628 Q 286.009 74.497 283.306 74.595 A 8.425 8.425 0 0 1 283.001 74.601 L 267.301 74.601 Q 263.401 74.601 263.401 71.201 L 263.401 67.801 A 4.218 4.218 0 0 1 263.622 66.373 Q 264.293 64.504 266.995 64.406 A 8.425 8.425 0 0 1 267.301 64.401 L 268.901 64.401 L 268.901 47.801 Q 268.901 41.723 267.835 38.457 A 9.178 9.178 0 0 0 267.101 36.751 A 5.97 5.97 0 0 0 263.005 33.824 A 10.187 10.187 0 0 0 260.801 33.601 A 9.94 9.94 0 0 0 255.559 35.114 A 12.512 12.512 0 0 0 254.751 35.651 A 14.729 14.729 0 0 0 250.724 40.071 A 17.587 17.587 0 0 0 250.151 41.101 Q 248.401 44.501 248.401 48.301 L 248.401 64.401 L 250.001 64.401 Q 253.901 64.401 253.901 67.801 L 253.901 71.201 A 4.218 4.218 0 0 1 253.679 72.628 Q 253.009 74.497 250.306 74.595 A 8.425 8.425 0 0 1 250.001 74.601 L 234.301 74.601 Q 230.401 74.601 230.401 71.201 L 230.401 67.801 A 4.218 4.218 0 0 1 230.622 66.373 Q 231.293 64.504 233.995 64.406 A 8.425 8.425 0 0 1 234.301 64.401 L 236.501 64.401 L 236.501 34.801 L 234.301 34.801 Q 230.401 34.801 230.401 31.401 L 230.401 28.001 A 4.218 4.218 0 0 1 230.622 26.573 Q 231.293 24.704 233.995 24.606 A 8.425 8.425 0 0 1 234.301 24.601 L 244.101 24.601 A 4.271 4.271 0 0 1 245.998 25.018 A 4.28 4.28 0 0 1 247.151 25.851 A 4.278 4.278 0 0 1 248.107 27.259 A 4.036 4.036 0 0 1 248.401 28.801 L 248.401 35.001 Q 250.501 30.001 254.851 26.801 A 17.124 17.124 0 0 1 259.135 24.464 A 14.119 14.119 0 0 1 264.001 23.601 A 20.319 20.319 0 0 1 269.012 24.182 A 13.552 13.552 0 0 1 276.551 29.001 Q 279.726 33.035 280.529 39.859 A 42.356 42.356 0 0 1 280.801 44.801 L 280.801 64.401 L 283.001 64.401 Q 286.901 64.401 286.901 67.801 Z" id="4" vector-effect="non-scaling-stroke"/><path d="M 323.17 45.975 A 66.247 66.247 0 0 0 318.301 44.401 A 126.301 126.301 0 0 1 317.853 44.271 Q 311.623 42.452 309.451 41.101 A 6.206 6.206 0 0 1 308.516 40.397 A 3.81 3.81 0 0 1 307.201 37.501 A 4.807 4.807 0 0 1 308.058 34.672 A 5.726 5.726 0 0 1 309.451 33.301 A 7.367 7.367 0 0 1 310.679 32.598 Q 311.748 32.112 313.071 31.89 A 14.654 14.654 0 0 1 315.501 31.701 Q 318.491 31.701 320.281 32.347 A 5.145 5.145 0 0 1 321.701 33.101 A 3.165 3.165 0 0 0 321.504 33.601 Q 321.301 34.274 321.301 35.201 A 7.986 7.986 0 0 0 321.301 35.288 A 6.454 6.454 0 0 0 323.251 39.951 A 6.709 6.709 0 0 0 324.975 41.213 A 6.621 6.621 0 0 0 328.001 41.901 A 8.991 8.991 0 0 0 329.804 41.729 A 6.125 6.125 0 0 0 333.051 40.001 A 6.27 6.27 0 0 0 334.62 37.234 A 8.436 8.436 0 0 0 334.901 35.001 A 8.742 8.742 0 0 0 332.522 28.835 A 12.29 12.29 0 0 0 329.751 26.651 A 18.453 18.453 0 0 0 326.145 25.032 Q 321.829 23.601 315.801 23.601 A 33.183 33.183 0 0 0 311.148 23.914 A 25.101 25.101 0 0 0 305.151 25.501 A 20.487 20.487 0 0 0 302.196 26.984 A 15.565 15.565 0 0 0 297.901 30.801 Q 295.301 34.201 295.301 38.601 A 19.349 19.349 0 0 0 295.302 38.823 Q 295.349 42.876 297.101 45.651 A 10.566 10.566 0 0 0 298.231 47.124 Q 300.02 49.087 303.101 50.701 Q 307.301 52.901 314.801 55.001 Q 320.201 56.501 321.951 57.901 Q 323.701 59.301 323.701 61.901 Q 323.701 64.501 321.401 66.001 Q 319.81 67.038 317.264 67.358 A 19.809 19.809 0 0 1 314.801 67.501 Q 309.701 67.501 307.401 65.801 A 7.105 7.105 0 0 0 307.531 65.463 A 6.083 6.083 0 0 0 307.901 63.401 A 8.561 8.561 0 0 0 307.9 63.31 A 6.567 6.567 0 0 0 305.951 58.551 A 6.709 6.709 0 0 0 304.226 57.288 A 6.621 6.621 0 0 0 301.201 56.601 A 8.859 8.859 0 0 0 300.058 56.672 A 6.362 6.362 0 0 0 296.201 58.551 Q 294.301 60.501 294.301 63.601 A 8.939 8.939 0 0 0 297.069 70.156 A 14.192 14.192 0 0 0 299.901 72.301 Q 305.501 75.601 315.001 75.601 Q 321.101 75.601 325.751 73.601 A 20.908 20.908 0 0 0 328.457 72.204 A 16.084 16.084 0 0 0 333.001 68.101 Q 335.601 64.601 335.601 60.201 A 16.533 16.533 0 0 0 335.464 58.037 A 11.721 11.721 0 0 0 331.701 50.651 A 14.533 14.533 0 0 0 330.541 49.704 Q 327.815 47.694 323.17 45.975 Z" id="5" vector-effect="non-scaling-stroke"/><path d="M 399.201 67.801 L 399.201 71.201 A 4.218 4.218 0 0 1 398.979 72.628 Q 398.309 74.497 395.606 74.595 A 8.425 8.425 0 0 1 395.301 74.601 L 385.501 74.601 A 4.271 4.271 0 0 1 383.603 74.183 A 4.28 4.28 0 0 1 382.451 73.351 A 4.278 4.278 0 0 1 381.494 71.942 A 4.036 4.036 0 0 1 381.201 70.401 L 381.201 64.201 Q 379.201 69.201 374.951 72.401 Q 370.701 75.601 365.901 75.601 A 19.781 19.781 0 0 1 360.955 75.019 A 13.214 13.214 0 0 1 353.551 70.201 Q 349.401 64.801 349.401 54.401 L 349.401 34.801 L 347.301 34.801 Q 343.401 34.801 343.401 31.401 L 343.401 28.001 A 4.218 4.218 0 0 1 343.622 26.573 Q 344.293 24.704 346.995 24.606 A 8.425 8.425 0 0 1 347.301 24.601 L 357.101 24.601 A 4.436 4.436 0 0 1 358.68 24.873 A 3.986 3.986 0 0 1 360.101 25.801 A 4.048 4.048 0 0 1 361.299 28.685 A 5.316 5.316 0 0 1 361.301 28.801 L 361.301 51.401 Q 361.301 57.5 362.289 60.752 A 9.229 9.229 0 0 0 363.001 62.501 A 5.691 5.691 0 0 0 366.953 65.382 A 9.844 9.844 0 0 0 369.101 65.601 A 9.795 9.795 0 0 0 374.483 63.974 A 12.232 12.232 0 0 0 375.101 63.551 A 14.074 14.074 0 0 0 379.007 59.13 A 16.857 16.857 0 0 0 379.551 58.101 Q 381.201 54.701 381.201 50.901 L 381.201 34.801 L 379.101 34.801 Q 375.201 34.801 375.201 31.401 L 375.201 28.001 A 4.218 4.218 0 0 1 375.422 26.573 Q 376.093 24.704 378.795 24.606 A 8.425 8.425 0 0 1 379.101 24.601 L 389.001 24.601 A 4.405 4.405 0 0 1 390.451 24.83 A 3.758 3.758 0 0 1 391.951 25.801 A 4.099 4.099 0 0 1 393.092 28.496 A 5.403 5.403 0 0 1 393.101 28.801 L 393.101 64.401 L 395.301 64.401 Q 399.201 64.401 399.201 67.801 Z" id="6" vector-effect="non-scaling-stroke"/><path d="M 405.501 71.201 L 405.501 67.801 A 4.218 4.218 0 0 1 405.722 66.373 Q 406.393 64.504 409.095 64.406 A 8.425 8.425 0 0 1 409.401 64.401 L 411.601 64.401 L 411.601 10.801 L 409.401 10.801 Q 405.501 10.801 405.501 7.401 L 405.501 4.001 A 4.218 4.218 0 0 1 405.722 2.573 Q 406.393 0.704 409.095 0.606 A 8.425 8.425 0 0 1 409.401 0.601 L 419.201 0.601 A 4.271 4.271 0 0 1 421.098 1.018 A 4.28 4.28 0 0 1 422.251 1.851 A 4.278 4.278 0 0 1 423.207 3.259 A 4.036 4.036 0 0 1 423.501 4.801 L 423.501 64.401 L 425.601 64.401 Q 429.501 64.401 429.501 67.801 L 429.501 71.201 A 4.218 4.218 0 0 1 429.279 72.628 Q 428.609 74.497 425.906 74.595 A 8.425 8.425 0 0 1 425.601 74.601 L 409.401 74.601 Q 405.501 74.601 405.501 71.201 Z" id="7" vector-effect="non-scaling-stroke"/><path d="M 444.101 55.301 L 444.101 34.601 L 439.001 34.601 A 5.334 5.334 0 0 1 437.681 34.446 A 3.82 3.82 0 0 1 435.951 33.501 A 3.671 3.671 0 0 1 434.836 31.212 A 5.106 5.106 0 0 1 434.801 30.601 L 434.801 28.601 A 4.571 4.571 0 0 1 434.983 27.277 A 3.573 3.573 0 0 1 435.951 25.701 A 3.879 3.879 0 0 1 437.939 24.697 A 5.554 5.554 0 0 1 439.001 24.601 L 444.101 24.601 L 444.101 15.501 A 5.095 5.095 0 0 1 444.269 14.156 A 3.772 3.772 0 0 1 445.251 12.451 A 3.878 3.878 0 0 1 447.707 11.323 A 5.235 5.235 0 0 1 448.201 11.301 L 451.901 11.301 Q 453.701 11.301 454.851 12.451 Q 456.001 13.601 456.001 15.501 L 456.001 24.601 L 467.801 24.601 A 5.334 5.334 0 0 1 469.12 24.755 A 3.82 3.82 0 0 1 470.851 25.701 A 3.671 3.671 0 0 1 471.965 27.989 A 5.106 5.106 0 0 1 472.001 28.601 L 472.001 30.601 A 4.571 4.571 0 0 1 471.818 31.924 A 3.573 3.573 0 0 1 470.851 33.501 A 3.879 3.879 0 0 1 468.863 34.504 A 5.554 5.554 0 0 1 467.801 34.601 L 456.001 34.601 L 456.001 56.301 Q 456.001 59.225 456.719 61.263 A 7.839 7.839 0 0 0 457.701 63.201 A 5.416 5.416 0 0 0 461.634 65.55 A 7.291 7.291 0 0 0 462.501 65.601 A 8.05 8.05 0 0 0 464.056 65.459 Q 464.963 65.281 465.67 64.876 A 4.304 4.304 0 0 0 466.401 64.351 Q 467.801 63.101 469.301 60.101 A 11.061 11.061 0 0 1 469.771 59.344 Q 470.323 58.537 470.851 58.151 A 2.607 2.607 0 0 1 471.675 57.756 Q 472.034 57.651 472.464 57.617 A 5.503 5.503 0 0 1 472.901 57.601 A 5.882 5.882 0 0 1 474.907 57.933 A 5.254 5.254 0 0 1 476.501 58.851 A 4.44 4.44 0 0 1 477.465 59.945 A 3.684 3.684 0 0 1 478.001 61.901 A 6.648 6.648 0 0 1 477.674 63.904 Q 477.414 64.727 476.949 65.593 A 12.964 12.964 0 0 1 476.601 66.201 A 27.679 27.679 0 0 1 473.518 70.316 A 22.305 22.305 0 0 1 470.601 73.001 A 12.414 12.414 0 0 1 465.265 75.321 A 17.127 17.127 0 0 1 462.101 75.601 A 24.724 24.724 0 0 1 456.845 75.077 Q 453.537 74.357 451.074 72.647 A 13.736 13.736 0 0 1 448.651 70.501 Q 445.113 66.536 444.326 59.549 A 37.99 37.99 0 0 1 444.101 55.301 Z" id="8" vector-effect="non-scaling-stroke"/><path d="M 485.101 71.201 L 485.101 67.801 A 4.218 4.218 0 0 1 485.322 66.373 Q 485.993 64.504 488.695 64.406 A 8.425 8.425 0 0 1 489.001 64.401 L 491.201 64.401 L 491.201 34.801 L 489.001 34.801 Q 485.101 34.801 485.101 31.401 L 485.101 28.001 A 4.218 4.218 0 0 1 485.322 26.573 Q 485.993 24.704 488.695 24.606 A 8.425 8.425 0 0 1 489.001 24.601 L 498.801 24.601 A 4.271 4.271 0 0 1 500.698 25.018 A 4.28 4.28 0 0 1 501.851 25.851 A 4.278 4.278 0 0 1 502.807 27.259 A 4.036 4.036 0 0 1 503.101 28.801 L 503.101 64.401 L 505.201 64.401 Q 509.101 64.401 509.101 67.801 L 509.101 71.201 A 4.218 4.218 0 0 1 508.879 72.628 Q 508.209 74.497 505.506 74.595 A 8.425 8.425 0 0 1 505.201 74.601 L 489.001 74.601 Q 485.101 74.601 485.101 71.201 Z M 495.401 15.901 Q 492.001 15.901 489.701 13.651 A 7.537 7.537 0 0 1 487.403 8.212 A 9.896 9.896 0 0 1 487.401 8.001 Q 487.401 4.601 489.701 2.301 A 7.723 7.723 0 0 1 495.295 0.001 A 9.975 9.975 0 0 1 495.401 0.001 Q 498.801 0.001 501.101 2.301 A 7.723 7.723 0 0 1 503.4 7.895 A 9.975 9.975 0 0 1 503.401 8.001 A 8.239 8.239 0 0 1 502.878 10.98 A 7.446 7.446 0 0 1 501.101 13.651 A 7.801 7.801 0 0 1 495.559 15.899 A 10.16 10.16 0 0 1 495.401 15.901 Z" id="9" vector-effect="non-scaling-stroke"/><path d="M 573.301 67.801 L 573.301 71.201 A 4.218 4.218 0 0 1 573.079 72.628 Q 572.409 74.497 569.706 74.595 A 8.425 8.425 0 0 1 569.401 74.601 L 553.701 74.601 Q 549.801 74.601 549.801 71.201 L 549.801 67.801 A 4.218 4.218 0 0 1 550.022 66.373 Q 550.693 64.504 553.395 64.406 A 8.425 8.425 0 0 1 553.701 64.401 L 555.301 64.401 L 555.301 47.801 Q 555.301 41.723 554.235 38.457 A 9.178 9.178 0 0 0 553.501 36.751 A 5.97 5.97 0 0 0 549.405 33.824 A 10.187 10.187 0 0 0 547.201 33.601 A 9.94 9.94 0 0 0 541.959 35.114 A 12.512 12.512 0 0 0 541.151 35.651 A 14.729 14.729 0 0 0 537.124 40.071 A 17.587 17.587 0 0 0 536.551 41.101 Q 534.801 44.501 534.801 48.301 L 534.801 64.401 L 536.401 64.401 Q 540.301 64.401 540.301 67.801 L 540.301 71.201 A 4.218 4.218 0 0 1 540.079 72.628 Q 539.409 74.497 536.706 74.595 A 8.425 8.425 0 0 1 536.401 74.601 L 520.701 74.601 Q 516.801 74.601 516.801 71.201 L 516.801 67.801 A 4.218 4.218 0 0 1 517.022 66.373 Q 517.693 64.504 520.395 64.406 A 8.425 8.425 0 0 1 520.701 64.401 L 522.901 64.401 L 522.901 34.801 L 520.701 34.801 Q 516.801 34.801 516.801 31.401 L 516.801 28.001 A 4.218 4.218 0 0 1 517.022 26.573 Q 517.693 24.704 520.395 24.606 A 8.425 8.425 0 0 1 520.701 24.601 L 530.501 24.601 A 4.271 4.271 0 0 1 532.398 25.018 A 4.28 4.28 0 0 1 533.551 25.851 A 4.278 4.278 0 0 1 534.507 27.259 A 4.036 4.036 0 0 1 534.801 28.801 L 534.801 35.001 Q 536.901 30.001 541.251 26.801 A 17.124 17.124 0 0 1 545.535 24.464 A 14.119 14.119 0 0 1 550.401 23.601 A 20.319 20.319 0 0 1 555.412 24.182 A 13.552 13.552 0 0 1 562.951 29.001 Q 566.126 33.035 566.929 39.859 A 42.356 42.356 0 0 1 567.201 44.801 L 567.201 64.401 L 569.401 64.401 Q 573.301 64.401 573.301 67.801 Z" id="10" vector-effect="non-scaling-stroke"/><path d="M 634.501 28.001 L 634.501 31.401 A 4.218 4.218 0 0 1 634.279 32.828 Q 633.609 34.697 630.906 34.795 A 8.425 8.425 0 0 1 630.601 34.801 L 628.501 34.801 L 628.501 71.701 A 43.53 43.53 0 0 1 627.876 79.33 Q 626.501 87.041 622.101 91.751 Q 616.188 98.079 605.326 98.561 A 41.17 41.17 0 0 1 603.501 98.601 A 37.182 37.182 0 0 1 598.349 98.26 A 27.478 27.478 0 0 1 593.201 97.051 A 21.046 21.046 0 0 1 589.889 95.601 Q 588.068 94.597 586.734 93.301 A 12.329 12.329 0 0 1 586.201 92.751 Q 583.701 90.001 583.701 86.401 Q 583.701 83.301 585.601 81.401 A 6.387 6.387 0 0 1 589.28 79.595 A 8.94 8.94 0 0 1 590.601 79.501 A 7.066 7.066 0 0 1 593.062 79.915 A 6.261 6.261 0 0 1 595.401 81.451 Q 597.301 83.401 597.301 86.201 Q 597.301 86.893 597.242 87.289 A 2.245 2.245 0 0 1 597.201 87.501 A 8.968 8.968 0 0 0 599.076 88.171 Q 600.033 88.406 601.177 88.512 A 21.886 21.886 0 0 0 603.201 88.601 Q 608.054 88.601 611.124 86.614 A 9.83 9.83 0 0 0 613.301 84.701 A 11.931 11.931 0 0 0 615.375 80.998 Q 616.601 77.597 616.601 72.601 L 616.601 65.101 A 16.505 16.505 0 0 1 610.708 72.37 A 20.01 20.01 0 0 1 610.301 72.651 Q 605.901 75.601 600.801 75.601 A 19.565 19.565 0 0 1 595.025 74.776 A 16.723 16.723 0 0 1 590.351 72.501 A 19.079 19.079 0 0 1 584.804 66.421 A 24.338 24.338 0 0 1 583.451 63.751 A 28.703 28.703 0 0 1 581.504 56.988 A 39.789 39.789 0 0 1 581.001 50.501 A 44.119 44.119 0 0 1 581.636 42.769 Q 582.407 38.443 584.114 35.005 A 22.036 22.036 0 0 1 586.901 30.701 Q 592.801 23.601 603.201 23.601 Q 607.501 23.601 611.301 25.601 A 17.105 17.105 0 0 1 616.382 29.726 A 21.236 21.236 0 0 1 617.801 31.601 L 618.501 27.801 A 6.959 6.959 0 0 1 618.8 26.831 Q 618.991 26.348 619.241 25.978 A 2.99 2.99 0 0 1 619.801 25.351 Q 620.56 24.718 621.818 24.619 A 6.164 6.164 0 0 1 622.301 24.601 L 630.601 24.601 Q 634.501 24.601 634.501 28.001 Z M 616.601 50.601 L 616.601 39.401 A 16.82 16.82 0 0 0 613.02 36.106 A 15.269 15.269 0 0 0 611.301 35.101 Q 608.301 33.601 604.901 33.601 Q 599.201 33.601 596.151 37.951 Q 593.932 41.115 593.327 46.316 A 36.308 36.308 0 0 0 593.101 50.501 Q 593.101 55.303 594.391 58.659 A 12.757 12.757 0 0 0 596.001 61.651 A 9.313 9.313 0 0 0 602.758 65.522 A 12.971 12.971 0 0 0 604.201 65.601 Q 607.601 65.601 610.451 63.601 A 13.362 13.362 0 0 0 614.348 59.294 A 16.27 16.27 0 0 0 614.951 58.151 A 17.071 17.071 0 0 0 616.586 51.364 A 19.937 19.937 0 0 0 616.601 50.601 Z" id="11" vector-effect="non-scaling-stroke"/></g></svg>