<svg width="100.586" height="16.406" viewBox="0 0 100.586 16.406" xmlns="http://www.w3.org/2000/svg"><g id="svgGroup" stroke-linecap="round" fill-rule="evenodd" font-size="9pt" stroke="#ab475c" stroke-width="0.25mm" fill="#ab475c" style="stroke:#ab475c;stroke-width:0.25mm;fill:#ab475c"><path d="M 0.02 12.695 L 3.047 12.695 L 3.047 12.207 L 1.582 12.207 L 3.906 9.141 L 6.035 12.207 L 4.844 12.207 L 4.844 12.695 L 8.477 12.695 A 0.94 0.94 0 0 0 8.464 12.531 Q 8.415 12.257 8.184 12.227 A 0.573 0.573 0 0 0 8.12 12.215 Q 8.062 12.207 7.988 12.207 L 7.617 12.207 L 4.922 8.262 L 6.934 5.469 A 1.506 1.506 0 0 1 7.318 5.083 A 1.345 1.345 0 0 1 7.91 4.863 A 0.781 0.781 0 0 0 8.041 4.845 Q 8.236 4.799 8.281 4.648 A 0.846 0.846 0 0 0 8.292 4.574 Q 8.297 4.536 8.299 4.491 A 2.066 2.066 0 0 0 8.301 4.395 L 5.371 4.395 L 5.371 4.883 L 6.738 4.883 L 4.629 7.813 L 2.617 4.883 L 3.906 4.883 L 3.906 4.395 L 0 4.395 L 0 4.883 L 0.957 4.883 L 3.594 8.691 L 1.348 11.621 A 1.613 1.613 0 0 1 0.955 11.992 A 1.385 1.385 0 0 1 0.371 12.207 Q 0.226 12.226 0.143 12.284 A 0.244 0.244 0 0 0 0.039 12.441 A 1.429 1.429 0 0 0 0.022 12.596 A 1.766 1.766 0 0 0 0.02 12.695 Z" id="0"/><path d="M 13.105 12.207 L 12.051 12.207 L 12.051 0 L 9.121 0 L 9.121 0.488 L 10.586 0.488 L 10.586 11.035 A 2.427 2.427 0 0 1 10.562 11.394 Q 10.475 11.972 10.078 12.109 Q 9.785 12.207 9.121 12.207 L 9.121 12.695 L 13.594 12.695 A 0.94 0.94 0 0 0 13.581 12.531 Q 13.532 12.257 13.301 12.227 A 0.573 0.573 0 0 0 13.237 12.215 Q 13.179 12.207 13.105 12.207 Z" id="1"/><path d="M 22.52 10.801 L 22.012 10.625 A 3.175 3.175 0 0 1 21.355 11.571 Q 20.743 12.164 19.824 12.301 A 3.631 3.631 0 0 1 19.629 12.324 Q 19.473 12.344 19.316 12.344 A 2.253 2.253 0 0 1 17.519 11.497 A 3.5 3.5 0 0 1 17.148 10.957 Q 16.563 9.902 16.563 8.457 Q 16.563 7.098 16.943 6.218 A 2.552 2.552 0 0 1 17.91 5.039 A 2.324 2.324 0 0 1 19.16 4.688 Q 20.215 4.688 20.43 5.508 A 3.201 3.201 0 0 1 20.45 5.597 Q 20.483 5.743 20.525 5.984 A 19.863 19.863 0 0 1 20.527 5.996 A 3.519 3.519 0 0 0 20.588 6.31 Q 20.668 6.638 20.798 6.818 A 0.572 0.572 0 0 0 20.957 6.973 A 1.15 1.15 0 0 0 21.329 7.084 A 1.33 1.33 0 0 0 21.387 7.09 Q 21.988 7.125 22.189 6.648 A 1.042 1.042 0 0 0 22.227 6.543 A 1.077 1.077 0 0 0 22.256 6.411 A 0.803 0.803 0 0 0 22.266 6.289 Q 22.266 5.293 20.996 4.648 A 4.306 4.306 0 0 0 19.043 4.199 A 4.97 4.97 0 0 0 17.595 4.397 A 3.519 3.519 0 0 0 15.391 6.328 A 4.926 4.926 0 0 0 14.95 7.854 A 6.191 6.191 0 0 0 14.902 8.633 A 5.071 5.071 0 0 0 15.103 10.102 A 3.729 3.729 0 0 0 16.641 12.168 A 4.262 4.262 0 0 0 19.029 12.89 A 5.142 5.142 0 0 0 19.082 12.891 Q 21.113 12.891 22.148 11.465 A 3.651 3.651 0 0 0 22.403 11.05 A 3.036 3.036 0 0 0 22.52 10.801 Z" id="2"/><path d="M 27.676 4.199 A 4.475 4.475 0 0 0 25.981 4.511 A 4.151 4.151 0 0 0 24.551 5.488 Q 23.398 6.68 23.398 8.457 A 5.322 5.322 0 0 0 23.608 9.996 A 3.911 3.911 0 0 0 25.195 12.148 A 4.219 4.219 0 0 0 27.617 12.891 A 4.334 4.334 0 0 0 29.282 12.579 A 4.059 4.059 0 0 0 30.723 11.562 Q 31.855 10.352 31.855 8.535 A 5.269 5.269 0 0 0 31.66 7.057 A 3.802 3.802 0 0 0 30.039 4.883 Q 28.965 4.199 27.676 4.199 Z M 25.138 7.324 A 8.496 8.496 0 0 0 25.059 8.535 A 9.087 9.087 0 0 0 25.087 9.264 A 6.864 6.864 0 0 0 25.195 10.059 A 5.679 5.679 0 0 0 25.238 10.242 Q 25.596 11.664 26.539 12.15 A 2.448 2.448 0 0 0 27.676 12.402 A 2.687 2.687 0 0 0 28.398 12.305 Q 29.809 11.86 30.112 9.742 A 9.112 9.112 0 0 0 30.195 8.457 A 9.602 9.602 0 0 0 30.181 7.915 A 7.313 7.313 0 0 0 30.137 7.422 Q 29.892 5.521 28.77 4.941 A 2.481 2.481 0 0 0 27.617 4.687 A 2.609 2.609 0 0 0 26.719 4.844 Q 25.422 5.363 25.138 7.324 Z" id="3"/><path d="M 37.031 12.207 L 36.152 12.207 L 36.152 7.988 A 4.313 4.313 0 0 1 36.302 6.958 A 2.691 2.691 0 0 1 37.441 5.371 A 2.245 2.245 0 0 1 37.969 5.123 A 1.827 1.827 0 0 1 38.516 5.039 A 1.945 1.945 0 0 1 39.186 5.148 Q 39.724 5.344 40.019 5.894 A 2.284 2.284 0 0 1 40.137 6.152 A 2.528 2.528 0 0 1 40.288 6.758 A 3.26 3.26 0 0 1 40.313 7.168 L 40.313 11.035 A 2.427 2.427 0 0 1 40.288 11.394 Q 40.201 11.972 39.805 12.109 Q 39.512 12.207 38.848 12.207 L 38.848 12.695 L 43.242 12.695 A 0.94 0.94 0 0 0 43.229 12.531 Q 43.18 12.257 42.949 12.227 A 0.573 0.573 0 0 0 42.885 12.215 Q 42.827 12.207 42.754 12.207 L 41.777 12.207 L 41.777 7.363 A 4.433 4.433 0 0 0 41.659 6.302 A 2.722 2.722 0 0 0 40.43 4.57 A 2.594 2.594 0 0 0 39.082 4.199 A 2.907 2.907 0 0 0 36.883 5.142 A 3.731 3.731 0 0 0 36.699 5.352 A 3.949 3.949 0 0 0 36.133 6.348 L 36.055 4.395 L 33.223 4.395 L 33.223 4.883 L 34.688 4.883 L 34.688 11.035 A 2.427 2.427 0 0 1 34.663 11.394 Q 34.576 11.972 34.18 12.109 Q 33.887 12.207 33.223 12.207 L 33.223 12.695 L 37.52 12.695 A 0.94 0.94 0 0 0 37.506 12.531 Q 37.458 12.257 37.227 12.227 A 0.573 0.573 0 0 0 37.162 12.215 Q 37.104 12.207 37.031 12.207 Z" id="4"/><path d="M 50.43 4.082 L 50.43 6.523 L 49.922 6.523 A 2.376 2.376 0 0 0 49.795 5.768 Q 49.417 4.722 47.93 4.707 A 3.81 3.81 0 0 0 47.307 4.754 Q 46.989 4.807 46.749 4.919 A 1.208 1.208 0 0 0 46.113 5.566 Q 46.016 5.801 46.016 6.055 A 1.177 1.177 0 0 0 46.323 6.837 Q 46.484 7.024 46.729 7.194 A 3.698 3.698 0 0 0 47.227 7.48 A 5.161 5.161 0 0 0 47.383 7.555 Q 47.64 7.673 48.065 7.843 A 31.02 31.02 0 0 0 48.086 7.852 A 13.522 13.522 0 0 1 48.811 8.17 Q 49.496 8.497 49.896 8.809 A 2.311 2.311 0 0 1 50.195 9.082 A 2.136 2.136 0 0 1 50.762 10.566 A 2.249 2.249 0 0 1 50.581 11.491 Q 50.211 12.321 49.082 12.676 Q 48.438 12.891 47.676 12.891 A 4.98 4.98 0 0 1 46.362 12.705 A 4.085 4.085 0 0 1 45.234 12.187 A 1.557 1.557 0 0 1 45.224 12.376 Q 45.199 12.579 45.115 12.682 A 0.275 0.275 0 0 1 44.98 12.773 A 1.331 1.331 0 0 1 44.87 12.787 Q 44.795 12.793 44.707 12.793 L 44.707 9.824 L 45.254 9.824 Q 45.288 12.038 46.951 12.322 A 3.083 3.083 0 0 0 47.441 12.363 A 3.428 3.428 0 0 0 48.087 12.307 Q 48.435 12.24 48.698 12.094 A 1.438 1.438 0 0 0 49.258 11.543 A 1.229 1.229 0 0 0 49.434 10.898 A 1.151 1.151 0 0 0 49.145 10.148 Q 48.849 9.792 48.251 9.497 A 4.716 4.716 0 0 0 48.242 9.492 Q 47.998 9.361 47.446 9.12 A 32.391 32.391 0 0 0 47.402 9.102 A 14.08 14.08 0 0 1 46.669 8.774 Q 45.669 8.291 45.273 7.852 A 2.207 2.207 0 0 1 44.707 6.348 Q 44.707 5.296 45.611 4.732 A 3.153 3.153 0 0 1 46.191 4.453 A 4.106 4.106 0 0 1 47.355 4.21 A 4.838 4.838 0 0 1 47.676 4.199 Q 48.965 4.199 49.902 4.746 A 1.788 1.788 0 0 1 49.914 4.536 Q 49.958 4.164 50.176 4.102 A 1.429 1.429 0 0 1 50.33 4.085 A 1.766 1.766 0 0 1 50.43 4.082 Z" id="5"/><path d="M 61.602 12.207 L 60.625 12.207 L 60.625 4.395 L 57.559 4.395 L 57.559 4.883 L 59.16 4.883 L 59.16 9.102 Q 59.16 10.859 57.93 11.68 A 2.232 2.232 0 0 1 57.382 11.955 A 1.841 1.841 0 0 1 56.797 12.051 A 2.299 2.299 0 0 1 56.061 11.942 Q 55.349 11.702 55.071 10.933 A 2.798 2.798 0 0 1 54.941 10.41 A 3.87 3.87 0 0 1 54.908 10.053 A 4.661 4.661 0 0 1 54.902 9.824 L 54.902 4.395 L 51.934 4.395 L 51.934 4.883 L 53.438 4.883 L 53.438 9.531 Q 53.455 12.509 55.661 12.847 A 3.938 3.938 0 0 0 56.23 12.891 A 2.884 2.884 0 0 0 58.421 11.946 A 3.747 3.747 0 0 0 58.633 11.699 A 3.949 3.949 0 0 0 59.199 10.703 L 59.336 12.695 L 62.09 12.695 A 0.94 0.94 0 0 0 62.077 12.531 Q 62.028 12.257 61.797 12.227 A 0.573 0.573 0 0 0 61.733 12.215 Q 61.675 12.207 61.602 12.207 Z" id="6"/><path d="M 67.246 12.207 L 66.191 12.207 L 66.191 0 L 63.262 0 L 63.262 0.488 L 64.727 0.488 L 64.727 11.035 A 2.427 2.427 0 0 1 64.702 11.394 Q 64.615 11.972 64.219 12.109 Q 63.926 12.207 63.262 12.207 L 63.262 12.695 L 67.734 12.695 A 0.94 0.94 0 0 0 67.721 12.531 Q 67.673 12.257 67.441 12.227 A 0.573 0.573 0 0 0 67.377 12.215 Q 67.319 12.207 67.246 12.207 Z" id="7"/><path d="M 68.652 4.395 L 68.652 4.883 L 70.02 4.883 L 70.02 10.391 Q 70.156 12.832 72.266 12.91 Q 73.963 12.91 74.458 10.94 A 5.375 5.375 0 0 0 74.512 10.703 L 74.512 10.664 L 73.984 10.566 A 5.119 5.119 0 0 1 73.74 11.225 Q 73.416 11.93 72.957 12.188 A 1.144 1.144 0 0 1 72.559 12.324 Q 71.504 12.285 71.484 10.82 L 71.484 4.883 L 74.512 4.883 L 74.512 4.395 L 71.484 4.395 L 71.484 2.129 L 70.02 2.539 L 70.02 4.395 L 68.652 4.395 Z" id="8"/><path d="M 79.199 12.207 L 78.223 12.207 L 78.223 4.395 L 75.195 4.395 L 75.195 4.883 L 76.758 4.883 L 76.758 11.035 Q 76.758 11.934 76.152 12.129 A 1.631 1.631 0 0 1 75.971 12.165 Q 75.775 12.194 75.487 12.203 A 9.199 9.199 0 0 1 75.195 12.207 L 75.195 12.695 L 79.688 12.695 A 0.94 0.94 0 0 0 79.674 12.531 Q 79.626 12.257 79.395 12.227 Q 79.297 12.207 79.199 12.207 Z M 77.954 0.621 A 1.369 1.369 0 0 0 77.852 0.566 A 1.334 1.334 0 0 0 77.622 0.493 A 1.033 1.033 0 0 0 77.402 0.469 A 1.155 1.155 0 0 0 76.979 0.543 Q 76.618 0.684 76.426 1.094 A 1.074 1.074 0 0 0 76.328 1.543 A 1.242 1.242 0 0 0 76.391 1.951 Q 76.512 2.301 76.867 2.489 A 1.367 1.367 0 0 0 76.973 2.539 A 1.267 1.267 0 0 0 77.335 2.615 A 1.183 1.183 0 0 0 77.402 2.617 A 1.149 1.149 0 0 0 77.807 2.55 Q 78.112 2.436 78.291 2.128 A 1.344 1.344 0 0 0 78.359 1.992 A 1.074 1.074 0 0 0 78.457 1.543 Q 78.457 0.92 77.954 0.621 Z" id="9"/><path d="M 84.668 12.207 L 83.789 12.207 L 83.789 7.988 A 4.313 4.313 0 0 1 83.938 6.958 A 2.691 2.691 0 0 1 85.078 5.371 A 2.245 2.245 0 0 1 85.606 5.123 A 1.827 1.827 0 0 1 86.152 5.039 A 1.945 1.945 0 0 1 86.823 5.148 Q 87.36 5.344 87.656 5.894 A 2.284 2.284 0 0 1 87.773 6.152 A 2.528 2.528 0 0 1 87.924 6.758 A 3.26 3.26 0 0 1 87.949 7.168 L 87.949 11.035 A 2.427 2.427 0 0 1 87.925 11.394 Q 87.838 11.972 87.441 12.109 Q 87.148 12.207 86.484 12.207 L 86.484 12.695 L 90.879 12.695 A 0.94 0.94 0 0 0 90.866 12.531 Q 90.817 12.257 90.586 12.227 A 0.573 0.573 0 0 0 90.522 12.215 Q 90.464 12.207 90.391 12.207 L 89.414 12.207 L 89.414 7.363 A 4.433 4.433 0 0 0 89.295 6.302 A 2.722 2.722 0 0 0 88.066 4.57 A 2.594 2.594 0 0 0 86.719 4.199 A 2.907 2.907 0 0 0 84.52 5.142 A 3.731 3.731 0 0 0 84.336 5.352 A 3.949 3.949 0 0 0 83.77 6.348 L 83.691 4.395 L 80.859 4.395 L 80.859 4.883 L 82.324 4.883 L 82.324 11.035 A 2.427 2.427 0 0 1 82.3 11.394 Q 82.213 11.972 81.816 12.109 Q 81.523 12.207 80.859 12.207 L 80.859 12.695 L 85.156 12.695 A 0.94 0.94 0 0 0 85.143 12.531 Q 85.094 12.257 84.863 12.227 A 0.573 0.573 0 0 0 84.799 12.215 Q 84.741 12.207 84.668 12.207 Z" id="10"/><path d="M 97.656 11.953 L 94.102 11.875 Q 93.268 11.821 93.191 11.195 A 1.061 1.061 0 0 1 93.184 11.094 A 0.584 0.584 0 0 1 93.278 10.759 Q 93.417 10.553 93.76 10.465 A 1.632 1.632 0 0 1 93.828 10.449 A 1.935 1.935 0 0 1 94.007 10.432 A 2.33 2.33 0 0 1 94.121 10.43 L 95.84 10.449 A 4.173 4.173 0 0 0 97.091 10.27 A 3.322 3.322 0 0 0 98.613 9.277 A 2.909 2.909 0 0 0 99.355 7.285 A 3.154 3.154 0 0 0 99.129 6.116 A 2.888 2.888 0 0 0 98.223 4.941 A 1.49 1.49 0 0 1 98.345 4.632 Q 98.446 4.447 98.592 4.336 A 0.788 0.788 0 0 1 98.887 4.199 Q 98.965 4.18 99.043 4.18 Q 99.242 4.18 99.462 4.335 A 1.575 1.575 0 0 1 99.629 4.473 Q 99.834 4.659 100.003 4.668 A 0.322 0.322 0 0 0 100.02 4.668 Q 100.439 4.567 100.556 4.179 A 0.998 0.998 0 0 0 100.586 4.043 A 0.986 0.986 0 0 0 100.531 3.705 Q 100.432 3.431 100.151 3.282 A 1.154 1.154 0 0 0 100.02 3.223 A 1.267 1.267 0 0 0 99.657 3.146 A 1.183 1.183 0 0 0 99.59 3.145 A 1.675 1.675 0 0 0 98.291 3.729 A 2.363 2.363 0 0 0 98.105 3.965 A 2.56 2.56 0 0 0 97.773 4.648 A 4.103 4.103 0 0 0 95.879 4.199 A 4.416 4.416 0 0 0 94.662 4.359 A 3.335 3.335 0 0 0 93.086 5.332 A 2.884 2.884 0 0 0 92.344 7.305 A 2.706 2.706 0 0 0 93.253 9.34 A 4.228 4.228 0 0 0 93.789 9.766 A 3.256 3.256 0 0 0 94.028 9.922 A 2.958 2.958 0 0 0 94.062 9.941 A 2.189 2.189 0 0 0 93.472 10.015 Q 92.731 10.223 92.5 11.016 A 2.252 2.252 0 0 0 92.441 11.523 A 2.086 2.086 0 0 0 92.558 12.196 A 1.677 1.677 0 0 0 93.281 13.066 A 2.939 2.939 0 0 0 92.928 13.517 Q 92.746 13.807 92.678 14.1 A 1.554 1.554 0 0 0 92.637 14.453 A 1.506 1.506 0 0 0 93.285 15.709 Q 93.524 15.889 93.85 16.031 A 3.724 3.724 0 0 0 93.906 16.055 A 3.871 3.871 0 0 0 94.723 16.304 Q 95.247 16.406 95.879 16.406 Q 98.848 16.406 99.805 14.961 A 1.948 1.948 0 0 0 100.085 14.27 A 1.845 1.845 0 0 0 100.117 13.926 Q 100.117 12.302 98.309 12.01 A 4.371 4.371 0 0 0 98.184 11.992 A 3.439 3.439 0 0 0 97.699 11.953 A 3.797 3.797 0 0 0 97.656 11.953 Z M 95.859 4.687 A 2.704 2.704 0 0 0 95.728 4.692 Q 93.944 4.797 93.906 7.285 Q 93.92 9.18 94.923 9.733 A 1.996 1.996 0 0 0 95.859 9.961 Q 97.754 9.941 97.793 7.285 A 5.636 5.636 0 0 0 97.756 6.662 Q 97.598 5.34 96.775 4.903 A 2.017 2.017 0 0 0 95.859 4.687 Z M 94.414 13.359 L 97.422 13.398 A 5.143 5.143 0 0 1 97.966 13.432 Q 98.518 13.499 98.816 13.694 A 0.742 0.742 0 0 1 99.121 14.062 Q 99.18 14.219 99.18 14.453 Q 99.18 15.22 97.905 15.613 A 5.634 5.634 0 0 1 97.578 15.703 Q 96.797 15.898 95.879 15.898 Q 93.945 15.898 93.438 14.883 A 1.317 1.317 0 0 1 93.327 14.575 A 1.117 1.117 0 0 1 93.301 14.336 A 1.439 1.439 0 0 1 93.447 13.767 Q 93.562 13.524 93.77 13.281 Q 94.026 13.333 94.223 13.35 A 2.157 2.157 0 0 0 94.414 13.359 Z" id="11"/></g></svg>